# xmcd CD database file
#
# Track frame offsets:
#	150
#	26195
#	39765
#	61670
#	79400
#	100825
#	123260
#	147555
#	169985
#	197190
#	215575
#	236315
#	249575
#	267560
#	293745
#
# Disc length: 4129 seconds
#
# Revision: 2
# Processed by: cddbd v1.5.1PL2 Copyright (c) Steve Scherf et al.
# Submitted via: CDex 1.50
#
DISCID=dd101f0f
DTITLE=Compilation - Salsa 'La Musica Que Se Fuma' CD2
DYEAR=1994
DGENRE=Salsa
TTITLE0=Adalberto Alvarez Y Su Son-Yo Borracho Me Case
TTITLE1=Benny More-Me Voy Pa'el Pueblo
TTITLE2=Irakere-El Coco
TTITLE3=Celina Gonzales-El Refran Se Te Olvido
TTITLE4=Reve Y Su Charangon-Que Sento Es Ese
TTITLE5=Malena Burke Y NG La Banda-Longina
TTITLE6=Original De Manzanillo-Acabo De Llegar
TTITLE7=Los Van Van-Que Palo Es Ese
TTITLE8=NG La Banda-No Se Puede Tapar El Sol
TTITLE9=Orquesta Aragon-Si Sabes Bailar Mi Son
TTITLE10=Adalberto Alvarez-Lo Que Esta Pasando
TTITLE11=Benny More-Cinturita
TTITLE12=Celina Gonzales-Yo Soy El Punto Cubano
TTITLE13=Irakere-Dile A Catalina
TTITLE14=Malena Burke Y NG La Banda-Me Voy Pa'el Pueblo
EXTD=YEAR: 1994
EXTT0=
EXTT1=
EXTT2=
EXTT3=
EXTT4=
EXTT5=
EXTT6=
EXTT7=
EXTT8=
EXTT9=
EXTT10=
EXTT11=
EXTT12=
EXTT13=
EXTT14=
PLAYORDER=
